<?xml version="1.0" encoding="UTF-8"?>
<svg width="100pt" height="100pt" version="1.1" viewBox="0 0 100 100" xmlns="http://www.w3.org/2000/svg">
 <g>
  <path fill="#66c43b" d="m92.398 2.5h-28.797c-2.8008 0-5.1016 2.3008-5.1016 5.1016 0 2.8008 2.3008 5.1016 5.1016 5.1016l16.398-0.003906-47.699 47.801c-2 2-2 5.1992 0 7.1992 1 1 2.3008 1.5 3.6016 1.5 1.3008 0 2.6016-0.5 3.6016-1.5l47.797-47.699v16.398c0 2.8008 2.3008 5.1016 5.1016 5.1016 2.8008 0 5.1016-2.3008 5.1016-5.1016l-0.003906-28.797c0-2.8008-2.3008-5.1016-5.1016-5.1016z"/>
 </g>
  <path fill="#66c43b" d="m79.199 49.801c-2.8008 0-5.1016 2.3008-5.1016 5.1016v20.5c0 6.6016-5.3984 11.898-11.898 11.898h-37.5c-6.6016 0-11.898-5.3984-11.898-11.898v-37.504c0-6.6016 5.3984-11.898 11.898-11.898h20.5c2.8008 0 5.1016-2.3008 5.1016-5.1016 0-2.8008-2.3008-5.1016-5.1016-5.1016l-20.5 0.003906c-12.199 0-22.199 9.8984-22.199 22.199v37.5c0 12.199 9.8984 22.199 22.199 22.199h37.5c12.199 0 22.199-9.8984 22.199-22.199v-20.602c-0.097657-2.7969-2.3984-5.0977-5.1992-5.0977z"/>
</svg>
