<svg width="28" height="28" viewBox="0 0 28 28" fill="none" xmlns="http://www.w3.org/2000/svg">
<g clip-path="url(#clip0_2002_3)">
<rect width="28" height="28" fill="white"/>
<path d="M25.3333 0.666687H2.66666C2.13622 0.666687 1.62752 0.877401 1.25244 1.25247C0.87737 1.62755 0.666656 2.13625 0.666656 2.66669V25.3334C0.666656 25.8638 0.87737 26.3725 1.25244 26.7476C1.62752 27.1226 2.13622 27.3334 2.66666 27.3334H25.3333C25.8638 27.3334 26.3725 27.1226 26.7475 26.7476C27.1226 26.3725 27.3333 25.8638 27.3333 25.3334V2.66669C27.3333 2.13625 27.1226 1.62755 26.7475 1.25247C26.3725 0.877401 25.8638 0.666687 25.3333 0.666687ZM8.66666 23.3334H4.66666V11.3334H8.66666V23.3334ZM6.66666 9.00002C6.20823 8.98692 5.76384 8.83901 5.38899 8.57479C5.01415 8.31056 4.72548 7.94174 4.55905 7.51439C4.39262 7.08704 4.35582 6.62012 4.45324 6.17198C4.55066 5.72384 4.77799 5.31434 5.10681 4.99465C5.43563 4.67496 5.85137 4.45926 6.30208 4.3745C6.75279 4.28974 7.21848 4.33968 7.64097 4.51808C8.06346 4.69647 8.42401 4.99542 8.67758 5.37755C8.93114 5.75969 9.06647 6.20808 9.06666 6.66669C9.05613 7.29382 8.79777 7.89129 8.34806 8.32851C7.89834 8.76573 7.29384 9.00716 6.66666 9.00002ZM23.3333 23.3334H19.3333V17.0134C19.3333 15.12 18.5333 14.44 17.4933 14.44C17.1884 14.4603 16.8905 14.5407 16.6167 14.6764C16.3429 14.8122 16.0987 15.0007 15.898 15.2312C15.6973 15.4616 15.5441 15.7294 15.4472 16.0193C15.3503 16.3091 15.3116 16.6152 15.3333 16.92C15.3267 16.9821 15.3267 17.0446 15.3333 17.1067V23.3334H11.3333V11.3334H15.2V13.0667C15.59 12.4734 16.1259 11.9901 16.7562 11.6633C17.3866 11.3364 18.0903 11.1769 18.8 11.2C20.8667 11.2 23.28 12.3467 23.28 16.08L23.3333 23.3334Z" fill="#2D64BC"/>
</g>
<defs>
<clipPath id="clip0_2002_3">
<rect width="28" height="28" fill="white"/>
</clipPath>
</defs>
</svg>
