<svg width="26" height="24" viewBox="0 0 26 24" fill="none" xmlns="http://www.w3.org/2000/svg">
<path d="M20.5154 0.237973L13.4188 8.70155L13.4204 8.7039L7.34566 0.262956C7.24628 0.106697 7.0694 0.00204482 6.86769 0.00204482H2.57039C2.45932 0.00204482 2.34678 0.0350167 2.24883 0.102394C1.99596 0.277299 1.93457 0.619909 2.1129 0.867919L10.3698 12.3409L1.34674 23.0997C1.14941 23.3334 1.18449 23.6803 1.42275 23.8723C1.52654 23.9569 1.65224 23.9971 1.77796 24H4.93957C5.13104 24 5.30059 23.9054 5.40145 23.7621L12.498 15.2994L18.5712 23.7389C18.6706 23.895 18.8474 23.9997 19.0491 23.9997L23.3465 23.9982C23.4575 23.9982 23.5701 23.9654 23.668 23.8979C23.9209 23.723 23.9822 23.3804 23.8039 23.1324L15.5471 11.6607L24.5702 0.900302C24.7674 0.666617 24.7324 0.319688 24.4941 0.127589C24.3903 0.0430057 24.2646 0.00286716 24.1389 0H20.9773C20.7858 0 20.6163 0.0946144 20.5154 0.237973Z" fill="#75717D"/>
</svg>
